# Blender 4.0.2
# www.blender.org
mtllib left.mtl
o left
v -51.037727 -1.000000 1.000000
v -51.037727 1.000000 1.000000
v 51.064175 -1.000000 1.000000
v 51.064175 1.000000 1.000000
v 51.064175 -1.000000 -1.000000
v 51.064175 1.000000 -1.000000
v 50.972145 1.000000 -1.000000
v 50.972145 -1.000000 -1.000000
v 50.972145 -1.000000 1.000000
v 50.972145 1.000000 1.000000
v -51.037727 -1.000000 -1.000000
v -51.037727 -1.000000 1.000000
v -51.037727 1.000000 1.000000
v -51.037727 1.000000 -1.000000
v -51.037727 1.000000 1.000000
v -51.037727 -1.000000 1.000000
v 51.064175 1.000000 1.000000
v 51.064175 -1.000000 1.000000
vn -0.0000 -0.0000 -1.0000
vn -0.0000 -0.0000 1.0000
vn 1.0000 -0.0000 -0.0000
vn -0.0000 1.0000 -0.0000
vn -0.0000 -1.0000 -0.0000
vn -1.0000 -0.0000 -0.0000
vt 0.002857 0.001122
vt 0.011165 0.000274
vt 0.009880 0.000012
vt 0.004046 0.000592
vt 0.004451 0.000487
vt 0.009571 0.001212
vt 0.007438 0.998551
vt 0.003740 0.998684
vt 0.008750 0.002643
vt 0.005590 0.002946
vt 0.008593 0.002253
vt 0.005650 0.002545
vt 0.022916 0.011739
vt 0.011189 0.011739
vt 0.011189 0.000012
vt 0.022916 0.000012
vt 0.000012 0.998334
vt 0.011165 0.999204
s 0
usemtl Material.001
f 17/1/1 18/2/1 9/3/1 10/4/1
f 3/5/2 4/6/2 15/7/2 16/8/2
f 8/9/3 7/10/3 10/4/3 9/3/3
f 18/2/4 5/11/4 8/9/4 9/3/4
f 6/12/5 17/1/5 10/4/5 7/10/5
f 5/11/2 6/12/2 7/10/2 8/9/2
f 12/13/6 13/14/6 14/15/6 11/16/6
f 16/8/4 15/7/4 2/17/4 1/18/4
f 4/6/4 3/5/4 18/2/4 17/1/4
f 3/5/4 16/8/4 1/18/4 18/2/4
f 15/7/4 4/6/4 17/1/4 2/17/4
